<svg xmlns="http://www.w3.org/2000/svg" viewBox="0 0 229.66 121.96"><defs><style>.cls-1{fill:#fff;}</style></defs><title>アセット 3</title><g id="レイヤー_2" data-name="レイヤー 2"><g id="レイヤー_2-2" data-name="レイヤー 2"><path class="cls-1" d="M18.45,24.1,17,72.47s-1,4-4.6,2-3.2-6.22-3.2-6.22.2-2-1-3-3.63,1.87-3.58,1.55a13.19,13.19,0,0,0-1.26,3.65,16.35,16.35,0,0,0,.26,5.83c.18,1,1.65,7.57,1.65,7.57A10.75,10.75,0,0,1,6,90.14a60.31,60.31,0,0,1-3.09,8.29L.7,105a25.71,25.71,0,0,0-.7,4.83,10.47,10.47,0,0,0,.66,3.85c.39,1.58.39,1.45,2,3.18a10.17,10.17,0,0,0,3.68,2.88c2.11,1.19,6.85,1.92,6.85,1.92s6.1.37,5.29.23,8,.11,8,.11,6-.66,8.34-2.4a15.42,15.42,0,0,0,3.83-4.44,23.89,23.89,0,0,0,.89-2.88,9.94,9.94,0,0,0,.3-3.48c0-2.44-.15-2.39-.76-4.79s-2.35-5.27-2.3-5.54-2.67-5.13-2.55-7.62a9.29,9.29,0,0,1,1-4.19c.23-.45.93-2.3,1.53-3.78a16.21,16.21,0,0,0,.63-4.42l0-1.13a11.21,11.21,0,0,0-.83-2.5,2.89,2.89,0,0,0-1.39-1.41,2.21,2.21,0,0,0-1.22-.24,1.15,1.15,0,0,0-.86.4c-.59.72-.83,1.62-1,3.52A4.43,4.43,0,0,1,29,80.6a4.72,4.72,0,0,1-4-.45c-.58-.59-1.3-1-1.29-1.64s-.26-55.58-.26-55.58a4.72,4.72,0,0,1,1-2.6,5.57,5.57,0,0,1,3.67-2.11C30,18,25.65,9.09,25.66,8.82s-.13-1,.33-1.37A12.42,12.42,0,0,0,28.38,5.2c1-1.27-.38-3.7-1.14-4.34A3.22,3.22,0,0,0,25,0a3.77,3.77,0,0,0-2.61,1.3A6.25,6.25,0,0,0,20.92,4.4c-.34,1.13-4.07,15.77-4.07,15.77s1.54,1.15,1.52,2.25A11.68,11.68,0,0,0,18.45,24.1Z"/><rect class="cls-1" x="172.85" y="59.59" width="7.65" height="1.23"/><rect class="cls-1" x="167.09" y="60.82" width="62.57" height="61.14" rx="4" ry="4"/><rect class="cls-1" x="168.46" y="36.65" width="60.35" height="22.94" rx="4" ry="4"/><rect class="cls-1" x="216.6" y="59.59" width="7.65" height="1.23"/><path class="cls-1" d="M114.49,53.84H83.25A2.14,2.14,0,0,0,81.12,56v63.87A2.14,2.14,0,0,0,83.25,122h31.24a2.13,2.13,0,0,0,2.12-2.13V56A2.13,2.13,0,0,0,114.49,53.84ZM88.69,64.26a4.08,4.08,0,1,1,4.07-4.07A4.07,4.07,0,0,1,88.69,64.26ZM98.87,76.87a4.08,4.08,0,1,1,4.07-4.07A4.08,4.08,0,0,1,98.87,76.87ZM109,64.26a4.08,4.08,0,1,1,4.08-4.07A4.07,4.07,0,0,1,109,64.26Z"/></g></g></svg>