<?xml version="1.0" encoding="utf-8"?>
<!-- Generator: Adobe Illustrator 23.0.3, SVG Export Plug-In . SVG Version: 6.00 Build 0)  -->
<svg version="1.1" id="レイヤー_1" xmlns="http://www.w3.org/2000/svg" xmlns:xlink="http://www.w3.org/1999/xlink" x="0px"
	 y="0px" viewBox="0 0 350 109" style="enable-background:new 0 0 350 109;" xml:space="preserve">
<style type="text/css">
	.st0{fill:#1069A0;}
	.st1{clip-path:url(#SVGID_2_);fill:#1069A0;}
</style>
<g>
	<path class="st0" d="M91.7,53l6.2-1.1v8.6h9.5V66h-9.5v11.6c0,2.3,0.3,3.9,1,4.9s1.8,1.5,3.5,1.5c1.1,0,2.1-0.1,3-0.4
		s1.6-0.5,2.1-0.7l1,5.2c-0.7,0.3-1.6,0.7-2.8,1c-1.2,0.3-2.5,0.5-4.1,0.5c-1.9,0-3.5-0.3-4.8-0.8s-2.3-1.3-3-2.4
		c-0.7-1-1.3-2.3-1.6-3.8c-0.3-1.5-0.5-3.1-0.5-5C91.7,77.6,91.7,53,91.7,53z"/>
	<path class="st0" d="M136.8,74.7c0,2.2-0.3,4.3-0.9,6.1c-0.6,1.8-1.5,3.4-2.6,4.7c-1.1,1.3-2.5,2.3-4,3c-1.6,0.7-3.3,1.1-5.2,1.1
		c-1.9,0-3.6-0.4-5.2-1.1s-2.9-1.7-4-3s-2-2.9-2.6-4.7c-0.6-1.8-0.9-3.9-0.9-6.1s0.3-4.3,0.9-6.1c0.6-1.8,1.5-3.4,2.6-4.7
		s2.5-2.3,4-3c1.6-0.7,3.3-1.1,5.1-1.1c1.9,0,3.6,0.4,5.2,1.1c1.6,0.7,2.9,1.7,4,3s2,2.9,2.6,4.7C136.5,70.4,136.8,72.4,136.8,74.7z
		 M130.5,74.7c0-2.8-0.6-5.1-1.7-6.7c-1.1-1.6-2.7-2.5-4.8-2.5c-2,0-3.6,0.8-4.8,2.5c-1.1,1.7-1.7,3.9-1.7,6.7
		c0,2.9,0.6,5.1,1.7,6.8c1.1,1.7,2.7,2.5,4.8,2.5c2,0,3.6-0.8,4.8-2.5C129.9,79.8,130.5,77.6,130.5,74.7z"/>
	<path class="st0" d="M142.7,61.4c1.2-0.4,2.7-0.7,4.6-1c1.9-0.3,4-0.5,6.3-0.5c2.2,0,4,0.3,5.4,1c1.5,0.6,2.6,1.5,3.5,2.7
		c0.9,1.1,1.5,2.5,1.8,4.1c0.4,1.6,0.5,3.4,0.5,5.3v16h-6.2V74c0-1.5-0.1-2.8-0.3-3.9s-0.5-1.9-0.9-2.6s-1-1.2-1.7-1.5
		s-1.6-0.5-2.7-0.5c-0.8,0-1.6,0.1-2.4,0.2c-0.8,0.1-1.5,0.2-1.9,0.3v23h-6.2V61.4H142.7z"/>
	<path class="st0" d="M170.4,74.8c0-2.5,0.3-4.7,1-6.6s1.6-3.5,2.8-4.7c1.2-1.3,2.5-2.2,4-2.8s3-1,4.6-1c3.7,0,6.5,1.2,8.6,3.6
		c2.1,2.4,3.1,6.1,3.1,10.9c0,0.4,0,0.8,0,1.2c0,0.5,0,0.9-0.1,1.2h-17.6c0.2,2.3,0.9,4.1,2.3,5.3c1.3,1.3,3.3,1.9,5.8,1.9
		c1.5,0,2.9-0.1,4.1-0.4c1.2-0.3,2.2-0.6,2.9-0.9l0.8,5.4c-0.3,0.2-0.8,0.4-1.4,0.6c-0.6,0.2-1.3,0.4-2,0.5
		c-0.8,0.2-1.6,0.3-2.5,0.4s-1.8,0.2-2.7,0.2c-2.3,0-4.4-0.4-6.1-1.1c-1.7-0.7-3.2-1.8-4.3-3.1c-1.1-1.3-2-2.9-2.5-4.7
		C170.7,79,170.4,77,170.4,74.8z M188.3,71.9c0-0.9-0.1-1.8-0.4-2.6c-0.2-0.8-0.6-1.5-1-2.1c-0.5-0.6-1-1.1-1.7-1.4
		s-1.5-0.5-2.4-0.5c-1,0-1.8,0.2-2.5,0.6s-1.3,0.9-1.8,1.5s-0.9,1.3-1.1,2.1c-0.3,0.8-0.5,1.6-0.6,2.4H188.3z"/>
	<path class="st0" d="M207.1,84.2c1.6,0,2.8-0.2,3.6-0.6c0.7-0.4,1.1-1.1,1.1-2.1c0-0.9-0.4-1.7-1.2-2.3c-0.8-0.6-2.1-1.3-3.9-2
		c-1.1-0.4-2.1-0.9-3.1-1.4c-0.9-0.5-1.7-1.1-2.4-1.7c-0.7-0.7-1.2-1.4-1.6-2.4c-0.4-0.9-0.6-2.1-0.6-3.4c0-2.6,0.9-4.7,2.7-6.2
		s4.2-2.3,7.3-2.3c1.6,0,3.1,0.2,4.5,0.5s2.5,0.6,3.2,0.9l-1.1,5.3c-0.7-0.3-1.5-0.6-2.6-0.9s-2.3-0.4-3.7-0.4
		c-1.3,0-2.3,0.2-3.1,0.7S205,67.1,205,68c0,0.5,0.1,0.9,0.2,1.3c0.2,0.4,0.4,0.7,0.8,1c0.4,0.3,0.9,0.6,1.5,0.9s1.4,0.6,2.2,1
		c1.5,0.6,2.7,1.2,3.7,1.7c1,0.6,1.9,1.2,2.5,1.9c0.7,0.7,1.1,1.5,1.5,2.4c0.3,0.9,0.5,2,0.5,3.3c0,2.7-0.9,4.8-2.8,6.2
		c-1.9,1.4-4.6,2.1-8.1,2.1c-2.3,0-4.2-0.2-5.6-0.6c-1.4-0.4-2.4-0.8-3-1l1.1-5.5c0.9,0.4,2,0.8,3.3,1.1
		C204.1,84,205.5,84.2,207.1,84.2z"/>
	<path class="st0" d="M222.9,53l6.2-1.1v8.6h9.5V66h-9.5v11.6c0,2.3,0.3,3.9,1,4.9s1.8,1.5,3.5,1.5c1.1,0,2.1-0.1,3-0.4
		s1.6-0.5,2.1-0.7l1,5.2c-0.7,0.3-1.6,0.7-2.8,1s-2.5,0.5-4.1,0.5c-1.9,0-3.5-0.3-4.8-0.8s-2.3-1.3-3-2.4c-0.7-1-1.3-2.3-1.6-3.8
		s-0.5-3.1-0.5-5L222.9,53L222.9,53z"/>
	<path class="st0" d="M268.1,74.7c0,2.2-0.3,4.3-0.9,6.1c-0.6,1.8-1.5,3.4-2.6,4.7c-1.1,1.3-2.5,2.3-4,3c-1.6,0.7-3.3,1.1-5.2,1.1
		c-1.9,0-3.6-0.4-5.2-1.1c-1.6-0.7-2.9-1.7-4-3s-2-2.9-2.6-4.7c-0.6-1.8-0.9-3.9-0.9-6.1s0.3-4.3,0.9-6.1c0.6-1.8,1.5-3.4,2.6-4.7
		s2.5-2.3,4-3c1.6-0.7,3.3-1.1,5.1-1.1c1.9,0,3.6,0.4,5.2,1.1c1.6,0.7,2.9,1.7,4,3s2,2.9,2.6,4.7C267.8,70.4,268.1,72.4,268.1,74.7z
		 M261.8,74.7c0-2.8-0.6-5.1-1.7-6.7s-2.7-2.5-4.8-2.5c-2,0-3.6,0.8-4.8,2.5c-1.1,1.7-1.7,3.9-1.7,6.7c0,2.9,0.6,5.1,1.7,6.8
		c1.1,1.7,2.7,2.5,4.8,2.5c2,0,3.6-0.8,4.8-2.5C261.2,79.8,261.8,77.6,261.8,74.7z"/>
	<path class="st0" d="M272.4,74.7c0-2.1,0.3-4.1,0.9-5.9s1.5-3.4,2.6-4.8c1.1-1.3,2.5-2.4,4.1-3.2s3.5-1.1,5.5-1.1
		c2.5,0,4.9,0.5,7.1,1.5l-1.3,5.4c-0.7-0.3-1.5-0.6-2.4-0.8c-0.9-0.2-1.9-0.3-2.9-0.3c-2.4,0-4.2,0.8-5.5,2.4s-1.9,3.9-1.9,6.8
		c0,2.8,0.6,5.1,1.8,6.7c1.2,1.7,3.2,2.5,6,2.5c1.1,0,2.1-0.1,3.1-0.3c1-0.2,1.9-0.5,2.6-0.8l0.9,5.4c-0.7,0.4-1.7,0.7-3.1,1
		s-2.8,0.4-4.3,0.4c-2.3,0-4.3-0.4-5.9-1.1c-1.7-0.7-3.1-1.8-4.2-3.1c-1.1-1.3-1.9-2.9-2.5-4.7C272.7,78.9,272.4,76.9,272.4,74.7z"
		/>
	<path class="st0" d="M303.6,71.6c0.8-0.9,1.6-1.8,2.5-2.8s1.7-2,2.6-3c0.8-1,1.7-2,2.4-2.9c0.8-0.9,1.4-1.7,2-2.4h7.3
		c-1.7,2-3.5,4.1-5.4,6.3c-1.9,2.2-3.8,4.3-5.7,6.4c1,0.9,2.1,2,3.2,3.3s2.2,2.7,3.3,4.1c1,1.5,2,2.9,2.9,4.4s1.7,2.8,2.3,4h-7.1
		c-0.6-1.1-1.3-2.3-2.1-3.5c-0.8-1.2-1.7-2.4-2.6-3.6s-1.8-2.3-2.8-3.3s-1.9-1.9-2.8-2.6v13.1h-6.2V47.8l6.2-1.1L303.6,71.6
		L303.6,71.6z"/>
</g>
<g>
	<g>
		<g>
			<defs>
				<rect id="SVGID_1_" x="4.6" y="27.2" width="77.6" height="71.1"/>
			</defs>
			<clipPath id="SVGID_2_">
				<use xlink:href="#SVGID_1_"  style="overflow:visible;"/>
			</clipPath>
			<path class="st1" d="M69.7,38.2H51.4c-4.5,0-8.1-3.9-8.1-8.6c0-1.3-1-2.3-2.2-2.3h-24c-6.9,0-12.5,5.9-12.5,13.3v44.3
				c0,7.3,5.6,13.3,12.5,13.3h52.7c6.9,0,12.5-5.9,12.5-13.3V51.5C82.2,44.2,76.6,38.2,69.7,38.2L69.7,38.2z M77.9,84.9
				c0,4.7-3.6,8.6-8.1,8.6H17.1c-4.5,0-8.1-3.9-8.1-8.6V40.6c0-4.7,3.6-8.6,8.1-8.6h22c1,6.2,6.1,10.9,12.3,10.9h18.4
				c4.5,0,8.1,3.9,8.1,8.6C77.9,51.5,77.9,84.9,77.9,84.9z"/>
		</g>
	</g>
</g>
<path class="st0" d="M76.4,25.6c1.4-1.5,2.5-3.5,3.2-5.7c0.4-1.4,0.4-2.9,0.1-4.4c-0.5-2.4-1.9-4-3.3-5.5c-1-1.2-2-2.2-2.5-3.6
	l-0.1-0.2c-0.3-0.8-0.7-1.7-0.6-2.4s-0.4-1.3-1-1.4c-0.6-0.1-1.3,0.3-1.4,1l-5.3,22.8c-0.9-0.9-2-1.6-3.4-1.9
	c-3.3-0.8-6.5,0.9-7.2,3.7s1.5,5.7,4.8,6.5s6.5-0.9,7.2-3.7l3.5-14.9c1.6,1.2,4.2,3.7,4,8.3c-0.2,0.2-0.4,0.4-0.6,0.6
	c-0.6,0.4-0.7,1.2-0.3,1.8c0.4,0.6,1.2,0.7,1.7,0.3c0.4-0.3,0.8-0.7,1.2-1.1C76.3,25.7,76.3,25.7,76.4,25.6z"/>
</svg>
